<?xml version="1.0" standalone="no"?>
<!DOCTYPE svg PUBLIC "-//W3C//DTD SVG 20010904//EN"
 "http://www.w3.org/TR/2001/REC-SVG-20010904/DTD/svg10.dtd">
<svg version="1.0" xmlns="http://www.w3.org/2000/svg"
 width="700.000000pt" height="700.000000pt" viewBox="0 0 700.000000 700.000000"
 preserveAspectRatio="xMidYMid meet">
<metadata>
Created by potrace 1.14, written by Peter Selinger 2001-2017
</metadata>
<g transform="translate(0.000000,700.000000) scale(0.100000,-0.100000)"
fill="#000000" stroke="none">
<path d="M3290 5825 l0 -155 360 0 360 0 0 155 0 155 -360 0 -360 0 0 -155z"/>
<path d="M2559 5457 c-94 -26 -149 -96 -149 -190 0 -110 71 -188 185 -202 104
-13 213 44 244 128 24 64 5 154 -42 205 -52 56 -155 81 -238 59z"/>
<path d="M1610 3610 l0 -160 360 0 361 0 -3 158 -3 157 -357 3 -358 2 0 -160z"/>
<path d="M2909 3237 c-88 -33 -139 -102 -139 -190 0 -120 85 -197 220 -197 74
0 130 22 172 66 81 87 59 233 -45 298 -55 34 -150 44 -208 23z"/>
<path d="M3749 3237 c-91 -34 -139 -99 -139 -186 0 -87 37 -146 115 -182 58
-27 158 -25 215 4 70 35 103 85 108 160 5 81 -24 140 -91 181 -55 34 -150 44
-208 23z"/>
<path d="M4586 3235 c-88 -31 -136 -95 -136 -182 0 -63 13 -99 48 -137 41 -44
98 -66 172 -66 80 0 139 27 184 83 41 51 48 136 17 200 -47 96 -174 142 -285
102z"/>
<path d="M1430 1395 l0 -155 360 0 360 0 0 155 0 155 -360 0 -360 0 0 -155z"/>
<path d="M3470 1395 l0 -155 360 0 360 0 0 155 0 155 -360 0 -360 0 0 -155z"/>
<path d="M2701 1008 c-71 -37 -104 -86 -109 -162 -6 -99 43 -173 137 -205 80
-26 205 1 253 55 77 87 57 231 -40 299 -38 26 -54 30 -120 33 -65 3 -84 0
-121 -20z"/>
<path d="M4760 1019 c-80 -33 -130 -106 -130 -189 0 -117 91 -200 220 -200
130 0 220 83 220 202 0 67 -30 121 -88 163 -38 26 -53 30 -120 32 -42 2 -88
-2 -102 -8z"/>
</g>
</svg>
